<svg xmlns="http://www.w3.org/2000/svg" viewBox="0 0 289 80"><path d="M50.545 69.226q-1 .8-2.3.7-1.2-.1-2.3-.7l-29.1-17q-.7-.4-1.3 0-.5.4-.7 1l-4.1 13.6q-.7 2.4-3.4 2.4h-4.9q-2.9 0-2.1-2.8l20-62.5q.5-1.6 1.3-2.1.9-.6 2.3-.6h7q1.4 0 2.2.6.9.5 1.4 2.1l19.1 59.8q.7 2.3-.8 3.6l-2.3 1.9zm-22.1-55.3q-.3-1.1-1-1.1t-1 1.1l-7.9 26.4q-.4 1.3-.1 2 .3.6 1 1l18.8 11q1.1.7 1.6.2.5-.6.3-1.3l-11.7-39.3zm75.807 65.3q-2.6 1.5-4.1-1.1l-5.4-9.3q-4.2 1.4-8.8 1.4-5.1 0-9.4-1.7-4.3-1.7-7.5-4.7-3.1-3-4.9-7.2-1.7-4.3-1.7-9.4v-24q0-5.1 1.7-9.3 1.8-4.3 4.9-7.3 3.2-3 7.5-4.7 4.3-1.7 9.4-1.7 5.1 0 9.4 1.7 4.3 1.7 7.4 4.7 3.2 3 4.9 7.3 1.8 4.2 1.8 9.3v24q0 5.3-1.9 9.6t-5.1 7.3l5.5 9.5q.7 1.2.3 2.3-.3 1.1-1.4 1.8l-2.6 1.5zm-26.8-40.7q-.7-1.2-.4-2.3.4-1.1 1.5-1.8l2.6-1.5q2.6-1.5 4.1 1.1l12.3 21.7q1.1-1.7 1.7-3.8.7-2.2.7-4.7v-24q0-6-3.6-10t-10.4-4q-6.8 0-10.4 4-3.6 4-3.6 10v24q0 6 3.6 10t10.4 4q2.1 0 4.1-.5l-12.6-22.2zm81.985-34.3q0-1.4.8-2.2.8-.8 2.2-.8h3.5q1.4 0 2.2.8.8.8.8 2.2v43q0 5.1-1.8 9.4-1.7 4.2-4.9 7.2-3.1 3-7.4 4.7-4.3 1.7-9.4 1.7-5.1 0-9.4-1.7-4.3-1.7-7.5-4.7-3.1-3-4.9-7.2-1.7-4.3-1.7-9.4v-43q0-1.4.8-2.2.8-.8 2.2-.8h3.5q1.4 0 2.2.8.8.8.8 2.2v43q0 6 3.6 10t10.4 4q6.8 0 10.4-4 3.6-4 3.6-10v-43zm25.96 65q-1.4 0-2.2-.8-.8-.8-.8-2.2v-62q0-1.4.8-2.2.8-.8 2.2-.8h17.5q5.5 0 10 1.9 4.6 1.8 7.8 5t4.9 7.6q1.8 4.4 1.8 9.5v20q0 5.1-1.8 9.5-1.7 4.4-4.9 7.6-3.2 3.2-7.8 5.1-4.5 1.8-10 1.8h-17.5zm32.5-44q0-3.5-1.1-6.3t-3.1-4.7q-2-2-4.8-3-2.7-1-6-1h-10q-1 0-1 1v48q0 1 1 1h10q3.3 0 6-1 2.8-1 4.8-2.9t3.1-4.7q1.1-2.8 1.1-6.4v-20zm67.61 44q-1 .8-2.3.7-1.2-.1-2.3-.7l-29.1-17q-.7-.4-1.3 0-.5.4-.7 1l-4.1 13.6q-.7 2.4-3.4 2.4h-4.9q-2.9 0-2.1-2.8l20-62.5q.5-1.6 1.3-2.1.9-.6 2.3-.6h7q1.4 0 2.2.6.9.5 1.4 2.1l19.1 59.8q.7 2.3-.8 3.6l-2.3 1.9zm-22.1-55.3q-.3-1.1-1-1.1t-1 1.1l-7.9 26.4q-.4 1.3-.1 2 .3.6 1 1l18.8 11q1.1.7 1.6.2.5-.6.3-1.3l-11.7-39.3z" style="-inkscape-font-specification:SciFly" font-size="100" font-family="SciFly" letter-spacing="0" word-spacing="0"/></svg>